<svg width="158" height="36" viewBox="0 0 158 36" fill="none" xmlns="http://www.w3.org/2000/svg">
<g clip-path="url(#clip0)">
<path fill-rule="evenodd" clip-rule="evenodd" d="M6.11978 0H30.2687C33.6349 0 36.3885 2.72508 36.3885 6.05529V29.9457C36.3885 33.2759 33.6349 36 30.2687 36H6.11978C2.75355 36 0 33.2759 0 29.9457V6.05529C0 2.72508 2.75355 0 6.11978 0Z" fill="white"/>
<path fill-rule="evenodd" clip-rule="evenodd" d="M14.5037 7.2518L10.3134 7.25281L6.60441 28.8777L10.7947 28.8767L14.5037 7.2518L5.3623 -4.45346L14.5037 7.2518Z" fill="#1A75CF"/>
<path fill-rule="evenodd" clip-rule="evenodd" d="M21.8852 13.7266L17.7138 13.7276L15.1514 28.7482L19.3217 28.7472L21.8852 13.7266Z" fill="#1A75CF"/>
<path fill-rule="evenodd" clip-rule="evenodd" d="M29.1371 19.813L25.155 19.814L23.6982 28.8777L27.6813 28.8767L29.1371 19.813Z" fill="#1A75CF"/>
<path fill-rule="evenodd" clip-rule="evenodd" d="M157.209 16.1344V25.4044C157.209 31.8046 150.991 32.6566 146.867 29.2109L148.907 26.9469C150.414 28.3649 153.336 28.9508 153.999 26.6988C154.216 25.9604 154.148 25.0427 154.148 24.2625C153.669 25.1344 152.983 25.816 151.601 26.0013C145.575 26.8064 144.83 16.1474 151.573 16.3656C152.567 16.3975 153.462 16.7283 154.148 17.4647V16.1344H157.209ZM82.793 25.8309H86.0021V13.2955H90.4483V10.5274H78.3457V13.2955H82.793V25.8309ZM89.4354 25.8309H92.5299V21.577C92.5299 19.5293 93.286 18.8996 94.6845 18.8996C95.1199 18.8996 95.4873 19.0122 95.876 19.1915L96.8624 16.4234C96.4727 16.2211 95.9906 16.0417 95.3492 16.0417C94.3404 16.0417 93.1946 16.4015 92.4842 17.9769L92.5299 16.244H89.4354V25.8309ZM103.39 20.1372H101.121C98.7146 20.1372 97.1324 20.9692 97.1324 23.0179C97.1324 25.246 98.7826 26.0332 100.571 26.0332C101.878 26.0332 102.725 25.6057 103.459 24.5026L103.39 25.8309H106.461V20.3843C106.461 17.369 104.559 16.0417 102.061 16.0417C99.7691 16.0417 98.7369 16.7393 97.8205 17.6161L99.5397 19.4167C99.9751 19.0341 100.594 18.5389 101.763 18.5389C102.794 18.5389 103.345 19.0341 103.39 20.1372ZM103.39 21.9378V22.3204C103.39 23.1305 102.749 23.6706 101.488 23.6706C100.617 23.6706 100.159 23.3547 100.159 22.8156C100.159 22.2746 100.502 21.9378 101.281 21.9378H103.39ZM113.495 26.0332C115.442 26.0332 116.589 25.3576 117.551 24.3004L115.465 22.4998C115.007 22.9502 114.48 23.4006 113.495 23.4006C112.096 23.4006 111.317 22.4101 111.317 21.015C111.317 19.6649 112.096 18.6963 113.495 18.6963C114.274 18.6963 115.03 19.1248 115.396 19.7097L117.598 17.9539C116.611 16.7393 115.442 16.0417 113.495 16.0417C110.446 16.0417 108.154 18.1114 108.154 21.015C108.154 23.9626 110.446 26.0332 113.495 26.0332ZM122.2 23.0628L123.025 22.2078L125.455 25.8309H129.054L125.226 20.1591L128.686 16.244H125.249L122.04 19.9349C122.131 19.3271 122.2 18.5837 122.2 17.8643V9.58273H119.106V25.8309H122.2V23.0628ZM131.777 14.6457C132.831 14.6457 133.725 13.8585 133.725 12.7325C133.725 11.6304 132.831 10.8423 131.777 10.8423C130.722 10.8423 129.806 11.6304 129.806 12.7325C129.806 13.8585 130.722 14.6457 131.777 14.6457ZM130.218 25.8309H133.312V16.244H130.218V25.8309ZM135.532 25.8309H138.626V20.6992C138.626 19.4845 139.36 18.8089 140.598 18.8089C141.698 18.8089 142.225 19.4167 142.225 20.4969V25.8309H145.32V20.2946C145.32 17.5713 143.784 16.0417 141.652 16.0417C140.3 16.0417 139.154 16.6715 138.557 17.8194L138.626 16.244H135.532V25.8309ZM152.067 18.7511C153.296 18.7511 154.292 19.7984 154.292 21.0898C154.292 22.3812 153.296 23.4275 152.067 23.4275C150.836 23.4275 149.84 22.3812 149.84 21.0898C149.84 19.7984 150.836 18.7511 152.067 18.7511Z" fill="white"/>
<path fill-rule="evenodd" clip-rule="evenodd" d="M41.3096 25.5671H51.5992V22.7929H44.5252V10.2302H41.3096V25.5671ZM55.1321 14.3575C56.1887 14.3575 57.0847 13.5686 57.0847 12.4402C57.0847 11.3357 56.1887 10.5458 55.1321 10.5458C54.0755 10.5458 53.1561 11.3357 53.1561 12.4402C53.1561 13.5686 54.0755 14.3575 55.1321 14.3575ZM53.57 25.5671H56.6708V15.9593H53.57V25.5671ZM63.1895 25.7698H63.4874L68.7248 15.9593H65.5783L64.2461 18.8234C63.8098 19.793 63.4874 21.3719 63.4874 21.3719C63.4874 21.3719 63.1437 19.793 62.684 18.8234L61.3061 15.9593H57.884L63.1895 25.7698ZM72.0736 21.6874H79.4924C79.7222 18.3271 77.8154 15.7566 74.3018 15.7566C71.2692 15.7566 68.9038 17.8307 68.9038 20.7407C68.9038 23.6947 71.1553 25.7698 74.6455 25.7698C76.6906 25.7698 77.8845 25.1606 78.8262 24.3488L77.0578 22.4773C76.5757 22.8149 75.7255 23.2443 74.5998 23.2443C73.1994 23.2443 72.3726 22.6801 72.0736 21.6874ZM72.0279 19.9279C72.2801 18.7784 73.1069 18.2372 74.3242 18.2372C75.5415 18.2372 76.231 18.8683 76.3683 19.9279H72.0279Z" fill="white"/>
</g>
<defs>
<clipPath id="clip0">
<rect width="157.209" height="36" fill="white"/>
</clipPath>
</defs>
</svg>
