<svg width="157" height="36" viewBox="0 0 157 36" fill="none" xmlns="http://www.w3.org/2000/svg">
<g clip-path="url(#clip0)">
<path fill-rule="evenodd" clip-rule="evenodd" d="M6.11166 0H30.2285C33.5903 0 36.3402 2.72508 36.3402 6.05529V29.9457C36.3402 33.2759 33.5903 36 30.2285 36H6.11166C2.74989 36 0 33.2759 0 29.9457V6.05529C0 2.72508 2.74989 0 6.11166 0Z" fill="#1A75CF"/>
<path fill-rule="evenodd" clip-rule="evenodd" d="M14.4847 7.2518L10.2999 7.25281L6.59592 28.8777L10.7807 28.8767L14.4847 7.2518L5.35547 -4.45346L14.4847 7.2518Z" fill="white"/>
<path fill-rule="evenodd" clip-rule="evenodd" d="M21.8557 13.7266L17.6899 13.7276L15.1309 28.7482L19.2957 28.7472L21.8557 13.7266Z" fill="white"/>
<path fill-rule="evenodd" clip-rule="evenodd" d="M29.0976 19.8129L25.1208 19.8139L23.666 28.8777L27.6438 28.8767L29.0976 19.8129Z" fill="white"/>
<path fill-rule="evenodd" clip-rule="evenodd" d="M157 16.1344V25.4044C157 31.8046 150.79 32.6566 146.672 29.2109L148.709 26.9469C150.214 28.3649 153.132 28.9508 153.794 26.6988C154.011 25.9604 153.943 25.0427 153.943 24.2625C153.465 25.1344 152.779 25.816 151.399 26.0013C145.382 26.8064 144.638 16.1474 151.372 16.3656C152.364 16.3975 153.258 16.7283 153.943 17.4647V16.1344H157ZM82.6826 25.8309H85.8874V13.2955H90.3278V10.5274H78.2412V13.2955H82.6826V25.8309ZM89.3162 25.8309H92.4065V21.577C92.4065 19.5293 93.1616 18.8996 94.5583 18.8996C94.9931 18.8996 95.36 19.0122 95.7482 19.1915L96.7334 16.4234C96.3442 16.2211 95.8627 16.0417 95.2222 16.0417C94.2147 16.0417 93.0704 16.4015 92.3609 17.9769L92.4065 16.244H89.3162V25.8309ZM103.253 20.1372H100.986C98.5831 20.1372 97.003 20.9692 97.003 23.0179C97.003 25.246 98.651 26.0332 100.437 26.0332C101.742 26.0332 102.589 25.6057 103.321 24.5026L103.253 25.8309H106.319V20.3843C106.319 17.369 104.42 16.0417 101.925 16.0417C99.6362 16.0417 98.6054 16.7393 97.6902 17.6161L99.4071 19.4167C99.8419 19.0341 100.46 18.5389 101.628 18.5389C102.658 18.5389 103.207 19.0341 103.253 20.1372ZM103.253 21.9378V22.3204C103.253 23.1305 102.612 23.6706 101.353 23.6706C100.482 23.6706 100.025 23.3547 100.025 22.8156C100.025 22.2746 100.368 21.9378 101.146 21.9378H103.253ZM113.343 26.0332C115.288 26.0332 116.434 25.3576 117.395 24.3004L115.312 22.4998C114.854 22.9502 114.328 23.4006 113.343 23.4006C111.947 23.4006 111.168 22.4101 111.168 21.015C111.168 19.6649 111.947 18.6963 113.343 18.6963C114.122 18.6963 114.877 19.1248 115.243 19.7097L117.441 17.9539C116.456 16.7393 115.288 16.0417 113.343 16.0417C110.299 16.0417 108.01 18.1114 108.01 21.015C108.01 23.9626 110.299 26.0332 113.343 26.0332ZM122.038 23.0628L122.862 22.2078L125.288 25.8309H128.882L125.059 20.1591L128.515 16.244H125.082L121.877 19.9349C121.969 19.3271 122.038 18.5837 122.038 17.8643V9.58273H118.947V25.8309H122.038V23.0628ZM131.601 14.6457C132.654 14.6457 133.547 13.8585 133.547 12.7325C133.547 11.6304 132.654 10.8423 131.601 10.8423C130.548 10.8423 129.633 11.6304 129.633 12.7325C129.633 13.8585 130.548 14.6457 131.601 14.6457ZM130.045 25.8309H133.135V16.244H130.045V25.8309ZM135.352 25.8309H138.442V20.6992C138.442 19.4845 139.175 18.8089 140.411 18.8089C141.51 18.8089 142.036 19.4167 142.036 20.4969V25.8309H145.126V20.2946C145.126 17.5713 143.593 16.0417 141.463 16.0417C140.113 16.0417 138.969 16.6715 138.373 17.8194L138.442 16.244H135.352V25.8309ZM151.864 18.7511C153.092 18.7511 154.087 19.7984 154.087 21.0898C154.087 22.3812 153.092 23.4275 151.864 23.4275C150.636 23.4275 149.641 22.3812 149.641 21.0898C149.641 19.7984 150.636 18.7511 151.864 18.7511Z" fill="#4D4D4D"/>
<path fill-rule="evenodd" clip-rule="evenodd" d="M41.2539 25.5671H51.5299V22.7929H44.4653V10.2302H41.2539V25.5671ZM55.0581 14.3575C56.1133 14.3575 57.0081 13.5686 57.0081 12.4402C57.0081 11.3357 56.1133 10.5458 55.0581 10.5458C54.0029 10.5458 53.0848 11.3357 53.0848 12.4402C53.0848 13.5686 54.0029 14.3575 55.0581 14.3575ZM53.4981 25.5671H56.5947V15.9593H53.4981V25.5671ZM63.1048 25.7698H63.4024L68.6327 15.9593H65.4905L64.16 18.8234C63.7243 19.793 63.4024 21.3719 63.4024 21.3719C63.4024 21.3719 63.0591 19.793 62.6 18.8234L61.2239 15.9593H57.8063L63.1048 25.7698ZM71.9772 21.6874H79.386C79.6156 18.3271 77.7113 15.7566 74.2024 15.7566C71.1738 15.7566 68.8115 17.8307 68.8115 20.7407C68.8115 23.6947 71.0601 25.7698 74.5456 25.7698C76.588 25.7698 77.7804 25.1606 78.7208 24.3488L76.9547 22.4773C76.4733 22.8149 75.6242 23.2443 74.4999 23.2443C73.1014 23.2443 72.2757 22.6801 71.9772 21.6874ZM71.9315 19.9279C72.1833 18.7784 73.009 18.2372 74.2247 18.2372C75.4404 18.2372 76.129 18.8683 76.2661 19.9279H71.9315Z" fill="#4D4D4D"/>
</g>
<defs>
<clipPath id="clip0">
<rect width="157" height="36" fill="white"/>
</clipPath>
</defs>
</svg>
