<svg width="335" height="243" viewBox="0 0 335 243" fill="none" xmlns="http://www.w3.org/2000/svg">
<g filter="url(#filter0_d)">
<rect x="9" y="25" width="289" height="207" rx="16" fill="white"/>
</g>
<path d="M68 115H227C228.105 115 229 115.895 229 117V123C229 124.105 228.105 125 227 125H68V115Z" fill="#DDDDDD"/>
<path d="M68 115H185.6C186.705 115 187.6 115.895 187.6 117V123C187.6 124.105 186.705 125 185.6 125H68V115Z" fill="#004484" fill-opacity="0.4"/>
<path d="M68 112H150.333C151.438 112 152.333 112.895 152.333 114V126C152.333 127.105 151.438 128 150.333 128H68V112Z" fill="#004485"/>
<path d="M249.719 125.291C252.259 125.291 253.978 123.589 253.978 121.099C253.978 118.708 252.317 117.147 250.292 117.147C249.08 117.147 248.192 117.538 247.644 118.276H247.503L247.852 114.599H253.355V113.022H246.407L245.735 119.937H247.437C247.876 119.106 248.715 118.608 249.777 118.608C251.188 118.608 252.16 119.621 252.16 121.132C252.16 122.692 251.18 123.738 249.728 123.738C248.424 123.738 247.453 122.95 247.32 121.754H245.544C245.66 123.838 247.337 125.291 249.719 125.291ZM259.132 125H260.992V113.022H259.141L255.986 115.263V117.089L258.991 114.939H259.132V125ZM266.379 118.5C268.064 118.5 269.068 117.438 269.068 115.645C269.068 113.885 268.047 112.798 266.379 112.798C264.719 112.798 263.689 113.885 263.689 115.645C263.689 117.438 264.694 118.5 266.379 118.5ZM267.167 125L275.327 113.022H273.775L265.607 125H267.167ZM266.379 117.289C265.624 117.289 265.192 116.691 265.192 115.653C265.192 114.632 265.632 114.026 266.379 114.026C267.126 114.026 267.558 114.632 267.558 115.653C267.558 116.683 267.134 117.289 266.379 117.289ZM274.563 125.125C276.249 125.125 277.253 124.062 277.253 122.269C277.253 120.501 276.232 119.422 274.563 119.422C272.903 119.422 271.874 120.509 271.874 122.269C271.874 124.054 272.887 125.125 274.563 125.125ZM274.563 123.904C273.816 123.904 273.385 123.315 273.385 122.277C273.385 121.256 273.816 120.642 274.563 120.642C275.319 120.642 275.75 121.256 275.75 122.277C275.75 123.307 275.319 123.904 274.563 123.904Z" fill="#004485"/>
<path d="M151 106L146.67 97.75H155.33L151 106Z" fill="#E31C53"/>
<path d="M50.1667 114.609H40.0833C39.75 113.13 38.4167 112 36.8333 112C35.25 112 34 113.13 33.5833 114.609H31.8333C31.3333 114.609 31 114.957 31 115.478C31 116 31.3333 116.348 31.8333 116.348H33.5833C33.9167 117.826 35.25 118.956 36.8333 118.956C38.4167 118.956 39.6667 117.826 40.0833 116.348H50.1667C50.6667 116.348 51 116 51 115.478C51 114.957 50.6667 114.609 50.1667 114.609ZM36.8333 117.217C35.9167 117.217 35.1667 116.435 35.1667 115.478C35.1667 114.522 35.9167 113.739 36.8333 113.739C37.75 113.739 38.5 114.522 38.5 115.478C38.5 116.435 37.75 117.217 36.8333 117.217Z" fill="#004485"/>
<path d="M50.1667 123.653H48.4167C48.0833 122.174 46.75 121.044 45.1667 121.044C43.5833 121.044 42.3333 122.174 41.9167 123.653H31.8333C31.3333 123.653 31 124 31 124.522C31 125.044 31.3333 125.392 31.8333 125.392H41.9167C42.25 126.87 43.5833 128 45.1667 128C46.75 128 48 126.87 48.4167 125.392H50.1667C50.6667 125.392 51 125.044 51 124.522C51 124 50.6667 123.653 50.1667 123.653ZM45.1667 126.261C44.25 126.261 43.5 125.479 43.5 124.522C43.5 123.566 44.25 122.783 45.1667 122.783C46.0833 122.783 46.8333 123.566 46.8333 124.522C46.8333 125.479 46.0833 126.261 45.1667 126.261Z" fill="#004485"/>
<path d="M35.2109 55.0508H31.1328V47.5449H30.0781V56H35.2109V55.0508ZM37.9531 56V47.5449H36.8984V56H37.9531ZM41.1523 56V49.4434H41.2461L45.834 56H46.8594V47.5449H45.8164V54.125H45.7227L41.1348 47.5449H40.1094V56H41.1523ZM54.2539 55.0508H50.0703V52.1445H54.0371V51.207H50.0703V48.4941H54.2539V47.5449H49.0156V56H54.2539V55.0508ZM61.4375 56H62.4922V47.5449H61.4434L59.1934 49.1621V50.2754L61.3438 48.7168H61.4375V56ZM68.5391 47.5449V56H71.4395C73.9531 56 75.4297 54.4355 75.4297 51.7695C75.4297 49.1094 73.9473 47.5449 71.4395 47.5449H68.5391ZM69.5938 48.4941H71.3691C73.2441 48.4941 74.3516 49.7129 74.3516 51.7812C74.3516 53.8438 73.2559 55.0508 71.3691 55.0508H69.5938V48.4941ZM82.4961 55.0508H78.3125V52.1445H82.2793V51.207H78.3125V48.4941H82.4961V47.5449H77.2578V56H82.4961V55.0508ZM92.7383 56V47.5449H91.5137L88.6191 54.5996H88.5254L85.6309 47.5449H84.4062V56H85.3906V49.543H85.4609L88.127 56H89.0176L91.6836 49.543H91.7539V56H92.7383ZM98.4453 47.3457C96.0547 47.3457 94.5664 49.0508 94.5664 51.7695C94.5664 54.4766 96.0195 56.1992 98.4453 56.1992C100.859 56.1992 102.324 54.4707 102.324 51.7695C102.324 49.0566 100.848 47.3457 98.4453 47.3457ZM98.4453 48.3184C100.174 48.3184 101.24 49.6543 101.24 51.7695C101.24 53.8672 100.18 55.2266 98.4453 55.2266C96.6875 55.2266 95.6504 53.8672 95.6504 51.7695C95.6504 49.6543 96.7227 48.3184 98.4453 48.3184Z" fill="#666666"/>
<path d="M31.666 80.8179H34.2661L36.5293 85H38.0747L35.6284 80.6128C36.9541 80.1953 37.7524 79.0527 37.7524 77.5806C37.7524 75.6763 36.4194 74.4312 34.3833 74.4312H30.3477V85H31.666V80.8179ZM31.666 75.603H34.2075C35.5698 75.603 36.3901 76.3574 36.3901 77.6245C36.3901 78.9209 35.6211 79.646 34.2661 79.646H31.666V75.603ZM42.3336 85.1392C43.3883 85.1392 44.2525 84.6777 44.7652 83.8354H44.8824V85H46.0836V79.5947C46.0836 77.9541 45.0069 76.9653 43.0807 76.9653C41.3961 76.9653 40.151 77.8003 39.9825 79.0674H41.2569C41.4327 78.4448 42.0919 78.0859 43.0367 78.0859C44.2159 78.0859 44.8238 78.6206 44.8238 79.5947V80.3125L42.546 80.4517C40.7076 80.5615 39.6676 81.3745 39.6676 82.7881C39.6676 84.231 40.8028 85.1392 42.3336 85.1392ZM42.568 84.0332C41.6524 84.0332 40.9713 83.5645 40.9713 82.7588C40.9713 81.9678 41.4986 81.5503 42.6998 81.4697L44.8238 81.3306V82.0557C44.8238 83.1836 43.8644 84.0332 42.568 84.0332ZM48.3796 79.2651C48.3796 80.4077 49.0534 81.0449 50.5329 81.4038L51.8879 81.7334C52.7302 81.9385 53.1403 82.3047 53.1403 82.8467C53.1403 83.5718 52.3786 84.0771 51.3166 84.0771C50.3059 84.0771 49.676 83.6523 49.4636 82.9858H48.1672C48.3063 84.2969 49.5148 85.1392 51.2727 85.1392C53.0671 85.1392 54.4367 84.165 54.4367 82.7515C54.4367 81.6162 53.7189 80.9717 52.2321 80.6128L51.0163 80.3198C50.0861 80.0928 49.6467 79.7559 49.6467 79.2139C49.6467 78.5107 50.3791 78.0347 51.3166 78.0347C52.2687 78.0347 52.884 78.4521 53.0524 79.082H54.2976C54.1291 77.7856 52.9792 76.9653 51.3239 76.9653C49.6467 76.9653 48.3796 77.9541 48.3796 79.2651ZM60.49 85.1392C62.4896 85.1392 63.8006 83.5205 63.8006 81.0522C63.8006 78.5693 62.4969 76.9653 60.49 76.9653C59.4061 76.9653 58.4466 77.5 58.0145 78.3496H57.8973V73.9697H56.6375V85H57.8387V83.7402H57.9559C58.4539 84.6191 59.3914 85.1392 60.49 85.1392ZM60.1971 78.1006C61.6399 78.1006 62.4969 79.2065 62.4969 81.0522C62.4969 82.8979 61.6399 84.0039 60.1971 84.0039C58.7615 84.0039 57.868 82.876 57.868 81.0522C57.868 79.2285 58.7615 78.1006 60.1971 78.1006ZM71.1576 82.9565C70.828 83.6523 70.1395 84.0259 69.1215 84.0259C67.7812 84.0259 66.9096 83.0371 66.8437 81.4771V81.4185H72.5199V80.9351C72.5199 78.4814 71.2235 76.9653 69.0922 76.9653C66.9242 76.9653 65.5326 78.5767 65.5326 81.0596C65.5326 83.5571 66.9022 85.1392 69.0922 85.1392C70.8207 85.1392 72.0512 84.3042 72.4174 82.9565H71.1576ZM69.0775 78.0786C70.33 78.0786 71.1649 79.0015 71.1942 80.4004H66.8437C66.9389 79.0015 67.8178 78.0786 69.0775 78.0786ZM74.6475 85H75.9072V80.1074C75.9072 78.9941 76.7788 78.1885 77.98 78.1885C78.229 78.1885 78.6831 78.2324 78.7856 78.2617V77.002C78.6245 76.98 78.3608 76.9653 78.1558 76.9653C77.1084 76.9653 76.2002 77.5073 75.9658 78.2764H75.8486V77.1045H74.6475V85ZM80.6568 85H81.9166V80.1074C81.9166 78.9941 82.7882 78.1885 83.9894 78.1885C84.2384 78.1885 84.6925 78.2324 84.795 78.2617V77.002C84.6339 76.98 84.3702 76.9653 84.1651 76.9653C83.1178 76.9653 82.2096 77.5073 81.9752 78.2764H81.858V77.1045H80.6568V85ZM87.1936 87.8564C88.5925 87.8564 89.2224 87.3145 89.8962 85.4834L92.9797 77.1045H91.6394L89.4787 83.6011H89.3615L87.1936 77.1045H85.8312L88.7536 85.0073L88.6071 85.4761C88.2775 86.4282 87.882 86.7725 87.1569 86.7725C86.9812 86.7725 86.7834 86.7651 86.6296 86.7358V87.8125C86.8054 87.8418 87.0251 87.8564 87.1936 87.8564ZM109.774 85V74.4312H108.243L104.625 83.2495H104.508L100.89 74.4312H99.3588V85H100.589V76.9287H100.677L104.01 85H105.123L108.455 76.9287H108.543V85H109.774ZM118.845 77.1045H117.585V81.7773C117.585 83.1616 116.823 83.9893 115.432 83.9893C114.172 83.9893 113.645 83.3301 113.645 81.9092V77.1045H112.385V82.2168C112.385 84.0845 113.308 85.1392 115.08 85.1392C116.289 85.1392 117.131 84.6411 117.526 83.7622H117.644V85H118.845V77.1045ZM122.115 85H123.375V78.1592H125.184V77.1045H123.375V76.2622C123.375 75.3979 123.755 74.9585 124.664 74.9585C124.891 74.9585 125.103 74.9658 125.257 74.9951V73.9697C124.993 73.9185 124.715 73.8965 124.407 73.8965C122.906 73.8965 122.115 74.6509 122.115 76.2256V77.1045H120.804V78.1592H122.115V85ZM127.699 85H128.959V78.1592H130.768V77.1045H128.959V76.2622C128.959 75.3979 129.34 74.9585 130.248 74.9585C130.475 74.9585 130.688 74.9658 130.842 74.9951V73.9697C130.578 73.9185 130.3 73.8965 129.992 73.8965C128.49 73.8965 127.699 74.6509 127.699 76.2256V77.1045H126.388V78.1592H127.699V85ZM133.416 75.5811C133.899 75.5811 134.295 75.1855 134.295 74.7021C134.295 74.2188 133.899 73.8232 133.416 73.8232C132.932 73.8232 132.537 74.2188 132.537 74.7021C132.537 75.1855 132.932 75.5811 133.416 75.5811ZM132.786 85H134.046V77.1045H132.786V85ZM136.598 85H137.858V80.3271C137.858 78.9429 138.671 78.1006 139.931 78.1006C141.19 78.1006 141.791 78.7744 141.791 80.1953V85H143.051V79.8877C143.051 78.0127 142.062 76.9653 140.289 76.9653C139.081 76.9653 138.312 77.478 137.916 78.3496H137.799V77.1045H136.598V85ZM145.325 79.2651C145.325 80.4077 145.999 81.0449 147.478 81.4038L148.833 81.7334C149.675 81.9385 150.085 82.3047 150.085 82.8467C150.085 83.5718 149.324 84.0771 148.262 84.0771C147.251 84.0771 146.621 83.6523 146.409 82.9858H145.112C145.251 84.2969 146.46 85.1392 148.218 85.1392C150.012 85.1392 151.382 84.165 151.382 82.7515C151.382 81.6162 150.664 80.9717 149.177 80.6128L147.961 80.3198C147.031 80.0928 146.592 79.7559 146.592 79.2139C146.592 78.5107 147.324 78.0347 148.262 78.0347C149.214 78.0347 149.829 78.4521 149.998 79.082H151.243C151.074 77.7856 149.924 76.9653 148.269 76.9653C146.592 76.9653 145.325 77.9541 145.325 79.2651ZM167.824 77.1045H166.557L165.005 83.418H164.887L163.122 77.1045H161.914L160.149 83.418H160.031L158.479 77.1045H157.204L159.416 85H160.691L162.448 78.8916H162.566L164.331 85H165.613L167.824 77.1045ZM169.161 87.2485L172.97 73.9697H171.9L168.092 87.2485H169.161ZM188.68 77.1045H187.413L185.86 83.418H185.743L183.978 77.1045H182.769L181.004 83.418H180.887L179.334 77.1045H178.06L180.271 85H181.546L183.304 78.8916H183.421L185.186 85H186.468L188.68 77.1045ZM190.587 85H191.847V80.3271C191.847 78.9941 192.624 78.1006 194.037 78.1006C195.231 78.1006 195.861 78.7964 195.861 80.1953V85H197.121V79.8877C197.121 78.0347 196.066 76.9653 194.396 76.9653C193.188 76.9653 192.36 77.478 191.964 78.3496H191.847V73.9697H190.587V85ZM200.23 75.5811C200.713 75.5811 201.109 75.1855 201.109 74.7021C201.109 74.2188 200.713 73.8232 200.23 73.8232C199.746 73.8232 199.351 74.2188 199.351 74.7021C199.351 75.1855 199.746 75.5811 200.23 75.5811ZM199.6 85H200.86V77.1045H199.6V85ZM203.939 75.061V77.1045H202.665V78.1592H203.939V82.9492C203.939 84.458 204.591 85.0586 206.217 85.0586C206.466 85.0586 206.708 85.0293 206.957 84.9854V83.9233C206.722 83.9453 206.598 83.9526 206.371 83.9526C205.551 83.9526 205.199 83.5571 205.199 82.627V78.1592H206.957V77.1045H205.199V75.061H203.939ZM214.123 82.9565C213.794 83.6523 213.105 84.0259 212.087 84.0259C210.747 84.0259 209.875 83.0371 209.809 81.4771V81.4185H215.486V80.9351C215.486 78.4814 214.189 76.9653 212.058 76.9653C209.89 76.9653 208.498 78.5767 208.498 81.0596C208.498 83.5571 209.868 85.1392 212.058 85.1392C213.787 85.1392 215.017 84.3042 215.383 82.9565H214.123ZM212.043 78.0786C213.296 78.0786 214.131 79.0015 214.16 80.4004H209.809C209.905 79.0015 210.784 78.0786 212.043 78.0786ZM36.7197 101.521C36.5 100.115 35.3281 98.9653 33.4092 98.9653C31.1973 98.9653 29.791 100.562 29.791 103.023C29.791 105.535 31.2046 107.139 33.4165 107.139C35.3135 107.139 36.4927 106.07 36.7197 104.62H35.4453C35.2109 105.513 34.4712 106.004 33.4092 106.004C32.0029 106.004 31.0947 104.847 31.0947 103.023C31.0947 101.236 31.9883 100.101 33.4092 100.101C34.5444 100.101 35.2402 100.738 35.4453 101.521H36.7197ZM38.8033 107H40.0631V102.327C40.0631 100.994 40.8395 100.101 42.253 100.101C43.4469 100.101 44.0768 100.796 44.0768 102.195V107H45.3365V101.888C45.3365 100.035 44.2818 98.9653 42.6119 98.9653C41.4034 98.9653 40.5758 99.478 40.1803 100.35H40.0631V95.9697H38.8033V107ZM51.031 107.139C53.2795 107.139 54.6711 105.586 54.6711 103.052C54.6711 100.511 53.2795 98.9653 51.031 98.9653C48.7824 98.9653 47.3908 100.511 47.3908 103.052C47.3908 105.586 48.7824 107.139 51.031 107.139ZM51.031 106.004C49.5368 106.004 48.6945 104.92 48.6945 103.052C48.6945 101.177 49.5368 100.101 51.031 100.101C52.5251 100.101 53.3674 101.177 53.3674 103.052C53.3674 104.92 52.5251 106.004 51.031 106.004ZM63.3318 101.521C63.1121 100.115 61.9402 98.9653 60.0213 98.9653C57.8094 98.9653 56.4031 100.562 56.4031 103.023C56.4031 105.535 57.8167 107.139 60.0286 107.139C61.9256 107.139 63.1048 106.07 63.3318 104.62H62.0574C61.823 105.513 61.0833 106.004 60.0213 106.004C58.615 106.004 57.7068 104.847 57.7068 103.023C57.7068 101.236 58.6004 100.101 60.0213 100.101C61.1565 100.101 61.8523 100.738 62.0574 101.521H63.3318ZM68.5868 107.139C70.8354 107.139 72.227 105.586 72.227 103.052C72.227 100.511 70.8354 98.9653 68.5868 98.9653C66.3383 98.9653 64.9467 100.511 64.9467 103.052C64.9467 105.586 66.3383 107.139 68.5868 107.139ZM68.5868 106.004C67.0927 106.004 66.2504 104.92 66.2504 103.052C66.2504 101.177 67.0927 100.101 68.5868 100.101C70.081 100.101 70.9232 101.177 70.9232 103.052C70.9232 104.92 70.081 106.004 68.5868 106.004ZM74.4277 107H75.6875V95.9697H74.4277V107ZM80.4811 107.139C81.5357 107.139 82.4 106.678 82.9127 105.835H83.0299V107H84.2311V101.595C84.2311 99.9541 83.1544 98.9653 81.2281 98.9653C79.5436 98.9653 78.2984 99.8003 78.13 101.067H79.4044C79.5802 100.445 80.2394 100.086 81.1842 100.086C82.3634 100.086 82.9713 100.621 82.9713 101.595V102.312L80.6935 102.452C78.8551 102.562 77.815 103.375 77.815 104.788C77.815 106.231 78.9503 107.139 80.4811 107.139ZM80.7154 106.033C79.7999 106.033 79.1188 105.564 79.1188 104.759C79.1188 103.968 79.6461 103.55 80.8473 103.47L82.9713 103.331V104.056C82.9713 105.184 82.0118 106.033 80.7154 106.033ZM87.2375 97.061V99.1045H85.9631V100.159H87.2375V104.949C87.2375 106.458 87.8894 107.059 89.5153 107.059C89.7644 107.059 90.0061 107.029 90.2551 106.985V105.923C90.0207 105.945 89.8962 105.953 89.6691 105.953C88.8488 105.953 88.4973 105.557 88.4973 104.627V100.159H90.2551V99.1045H88.4973V97.061H87.2375ZM97.4217 104.957C97.0921 105.652 96.4036 106.026 95.3855 106.026C94.0452 106.026 93.1736 105.037 93.1077 103.477V103.418H98.784V102.935C98.784 100.481 97.4876 98.9653 95.3563 98.9653C93.1883 98.9653 91.7967 100.577 91.7967 103.06C91.7967 105.557 93.1663 107.139 95.3563 107.139C97.0848 107.139 98.3152 106.304 98.6814 104.957H97.4217ZM95.3416 100.079C96.594 100.079 97.429 101.001 97.4583 102.4H93.1077C93.2029 101.001 94.0818 100.079 95.3416 100.079Z" fill="black"/>
<g filter="url(#filter1_d)">
<rect x="244" y="9" width="80" height="35.8621" rx="17.931" fill="#E00000"/>
<path d="M265.902 22.5449V31H268.803C271.316 31 272.793 29.4355 272.793 26.7695C272.793 24.1094 271.311 22.5449 268.803 22.5449H265.902ZM266.957 23.4941H268.732C270.607 23.4941 271.715 24.7129 271.715 26.7812C271.715 28.8437 270.619 30.0508 268.732 30.0508H266.957V23.4941ZM278.172 22.3457C275.781 22.3457 274.293 24.0508 274.293 26.7695C274.293 29.4765 275.746 31.1992 278.172 31.1992C280.586 31.1992 282.051 29.4707 282.051 26.7695C282.051 24.0566 280.574 22.3457 278.172 22.3457ZM278.172 23.3183C279.9 23.3183 280.967 24.6543 280.967 26.7695C280.967 28.8672 279.906 30.2265 278.172 30.2265C276.414 30.2265 275.377 28.8672 275.377 26.7695C275.377 24.6543 276.449 23.3183 278.172 23.3183ZM288.221 24.3262H288.291L290.236 31H291.232L293.535 22.5449H292.434L290.752 29.418H290.682L288.789 22.5449H287.723L285.83 29.418H285.76L284.078 22.5449H282.977L285.279 31H286.275L288.221 24.3262ZM296.184 31V24.4433H296.277L300.865 31H301.891V22.5449H300.848V29.125H300.754L296.166 22.5449H295.141V31H296.184Z" fill="white"/>
</g>
<path d="M36 204H38V196H36V204ZM39 190C33.48 190 29 194.48 29 200C29 205.52 33.48 210 39 210C44.52 210 49 205.52 49 200C49 194.48 44.52 190 39 190ZM39 208C34.59 208 31 204.41 31 200C31 195.59 34.59 192 39 192C43.41 192 47 195.59 47 200C47 204.41 43.41 208 39 208ZM40 204H42V196H40V204Z" fill="#E00000"/>
<path d="M71.5283 208.291C74.3174 208.291 75.9443 205.991 75.9443 202.023C75.9443 198.047 74.2925 195.731 71.5283 195.731C68.7476 195.731 67.0957 198.047 67.0957 201.999C67.0957 205.983 68.731 208.291 71.5283 208.291ZM71.5283 206.747C69.9014 206.747 68.9717 205.086 68.9717 201.999C68.9717 198.952 69.918 197.284 71.5283 197.284C73.1387 197.284 74.0684 198.936 74.0684 201.999C74.0684 205.095 73.1553 206.747 71.5283 206.747ZM82.5684 208.291C85.3574 208.291 86.9844 205.991 86.9844 202.023C86.9844 198.047 85.3325 195.731 82.5684 195.731C79.7876 195.731 78.1357 198.047 78.1357 201.999C78.1357 205.983 79.771 208.291 82.5684 208.291ZM82.5684 206.747C80.9414 206.747 80.0117 205.086 80.0117 201.999C80.0117 198.952 80.958 197.284 82.5684 197.284C84.1787 197.284 85.1084 198.936 85.1084 201.999C85.1084 205.095 84.1953 206.747 82.5684 206.747Z" fill="#E00000"/>
<path d="M74.9551 188V179.545H73.9004V183.201H69.2598V179.545H68.2051V188H69.2598V184.15H73.9004V188H74.9551ZM78.166 184.654H80.2461L82.0566 188H83.293L81.3359 184.49C82.3965 184.156 83.0352 183.242 83.0352 182.064C83.0352 180.541 81.9688 179.545 80.3398 179.545H77.1113V188H78.166V184.654ZM78.166 180.482H80.1992C81.2891 180.482 81.9453 181.086 81.9453 182.1C81.9453 183.137 81.3301 183.717 80.2461 183.717H78.166V180.482Z" fill="#999999"/>
<path d="M110.528 208.291C113.317 208.291 114.944 205.991 114.944 202.023C114.944 198.047 113.292 195.731 110.528 195.731C107.748 195.731 106.096 198.047 106.096 201.999C106.096 205.983 107.731 208.291 110.528 208.291ZM110.528 206.747C108.901 206.747 107.972 205.086 107.972 201.999C107.972 198.952 108.918 197.284 110.528 197.284C112.139 197.284 113.068 198.936 113.068 201.999C113.068 205.095 112.155 206.747 110.528 206.747ZM122.847 208H124.64V205.618H126.292V204.041H124.64V196.022H121.992C120.34 198.504 118.58 201.334 117.003 204.041V205.618H122.847V208ZM118.788 203.958C120.016 201.857 121.477 199.525 122.764 197.591H122.872V204.074H118.788V203.958Z" fill="#E00000"/>
<path d="M114.607 188V179.545H113.383L110.488 186.6H110.395L107.5 179.545H106.275V188H107.26V181.543H107.33L109.996 188H110.887L113.553 181.543H113.623V188H114.607ZM117.818 188V179.545H116.764V188H117.818ZM121.018 188V181.443H121.111L125.699 188H126.725V179.545H125.682V186.125H125.588L121 179.545H119.975V188H121.018Z" fill="#999999"/>
<path d="M152.943 202.58H154.437C155.998 202.58 156.96 203.376 156.96 204.655C156.96 205.9 155.931 206.73 154.462 206.73C153.009 206.73 152.005 205.975 151.897 204.796H150.112C150.212 206.904 151.955 208.291 154.487 208.291C156.985 208.291 158.87 206.796 158.87 204.754C158.87 203.111 157.84 202.048 156.247 201.808V201.667C157.5 201.318 158.405 200.363 158.413 198.919C158.421 197.217 157.019 195.731 154.545 195.731C152.021 195.731 150.461 197.184 150.336 199.218H152.096C152.204 197.964 153.076 197.259 154.437 197.259C155.782 197.259 156.579 198.097 156.579 199.151C156.579 200.305 155.682 201.119 154.387 201.119H152.943V202.58ZM163.867 202.58H165.361C166.921 202.58 167.884 203.376 167.884 204.655C167.884 205.9 166.855 206.73 165.386 206.73C163.933 206.73 162.929 205.975 162.821 204.796H161.036C161.136 206.904 162.879 208.291 165.411 208.291C167.909 208.291 169.793 206.796 169.793 204.754C169.793 203.111 168.764 202.048 167.17 201.808V201.667C168.424 201.318 169.329 200.363 169.337 198.919C169.345 197.217 167.942 195.731 165.469 195.731C162.945 195.731 161.385 197.184 161.26 199.218H163.02C163.128 197.964 164 197.259 165.361 197.259C166.706 197.259 167.502 198.097 167.502 199.151C167.502 200.305 166.606 201.119 165.311 201.119H163.867V202.58Z" fill="#E00000"/>
<path d="M149.979 185.791C150.09 187.25 151.326 188.199 153.119 188.199C155.053 188.199 156.277 187.209 156.277 185.656C156.277 184.414 155.574 183.734 153.822 183.295L152.938 183.061C151.771 182.762 151.309 182.381 151.309 181.719C151.309 180.863 152.053 180.301 153.178 180.301C154.232 180.301 154.947 180.816 155.094 181.684H156.154C156.066 180.318 154.848 179.346 153.213 179.346C151.426 179.346 150.225 180.318 150.225 181.754C150.225 182.955 150.887 183.646 152.416 184.033L153.5 184.314C154.666 184.607 155.193 185.064 155.193 185.785C155.193 186.623 154.355 187.238 153.219 187.238C152.018 187.238 151.174 186.676 151.045 185.791H149.979ZM163.273 187.051H159.09V184.145H163.057V183.207H159.09V180.494H163.273V179.545H158.035V188H163.273V187.051ZM168.588 188.199C170.387 188.199 171.723 187.197 172.004 185.645H170.932C170.662 186.623 169.766 187.227 168.588 187.227C166.959 187.227 165.939 185.896 165.939 183.775C165.939 181.654 166.959 180.318 168.582 180.318C169.748 180.318 170.65 181.004 170.932 182.094H172.004C171.752 180.465 170.363 179.346 168.582 179.346C166.285 179.346 164.855 181.045 164.855 183.775C164.855 186.5 166.291 188.199 168.588 188.199Z" fill="#999999"/>
<circle cx="95" cy="198" r="2" fill="#BBBBBB"/>
<circle cx="95" cy="205" r="2" fill="#BBBBBB"/>
<circle cx="139" cy="198" r="2" fill="#BBBBBB"/>
<circle cx="139" cy="205" r="2" fill="#BBBBBB"/>
<defs>
<filter id="filter0_d" x="0" y="16" width="309" height="227" filterUnits="userSpaceOnUse" color-interpolation-filters="sRGB">
<feFlood flood-opacity="0" result="BackgroundImageFix"/>
<feColorMatrix in="SourceAlpha" type="matrix" values="0 0 0 0 0 0 0 0 0 0 0 0 0 0 0 0 0 0 127 0"/>
<feOffset dx="1" dy="1"/>
<feGaussianBlur stdDeviation="5"/>
<feColorMatrix type="matrix" values="0 0 0 0 0 0 0 0 0 0 0 0 0 0 0 0 0 0 0.1 0"/>
<feBlend mode="normal" in2="BackgroundImageFix" result="effect1_dropShadow"/>
<feBlend mode="normal" in="SourceGraphic" in2="effect1_dropShadow" result="shape"/>
</filter>
<filter id="filter1_d" x="235" y="0" width="100" height="55.8621" filterUnits="userSpaceOnUse" color-interpolation-filters="sRGB">
<feFlood flood-opacity="0" result="BackgroundImageFix"/>
<feColorMatrix in="SourceAlpha" type="matrix" values="0 0 0 0 0 0 0 0 0 0 0 0 0 0 0 0 0 0 127 0"/>
<feOffset dx="1" dy="1"/>
<feGaussianBlur stdDeviation="5"/>
<feColorMatrix type="matrix" values="0 0 0 0 0 0 0 0 0 0 0 0 0 0 0 0 0 0 0.25 0"/>
<feBlend mode="normal" in2="BackgroundImageFix" result="effect1_dropShadow"/>
<feBlend mode="normal" in="SourceGraphic" in2="effect1_dropShadow" result="shape"/>
</filter>
</defs>
</svg>
